<svg xmlns="http://www.w3.org/2000/svg" width="100.18" height="30.574" viewBox="63.143 30 100.18 30.574"><g data-name="Group 6"><path d="M70.583 54.765c-.102 0-.255-.051-.51-.204l-5.809-5.605c-.306-.255-.509-.459-.61-.612a2.167 2.167 0 0 1-.358-.509 1.412 1.412 0 0 1-.153-.663v-.815c0-.255.051-.458.153-.662.153-.204.255-.408.357-.51l.611-.611 5.758-5.758a.862.862 0 0 1 .51-.153c.204 0 .356.051.51.203.101.153.203.306.203.51V40.548c0 .102-.05.153-.05.204a.387.387 0 0 1-.103.204c-.05.102-.102.153-.102.153 0 .051-.05.102-.152.203l-.153.153s-.102.051-.204.204c-.102.102-.204.153-.204.204l-4.484 4.637c-.102.102-.204.204-.204.306 0 .102.051.204.204.306l4.484 4.433c.051.051.102.102.204.153.102.102.153.152.204.152l.153.153.152.153c.051.051.051.102.102.153.051.051.051.153.102.204 0 .051.051.153.051.204v1.274a.653.653 0 0 1-.204.509c-.153.204-.305.255-.458.255Z" fill="#ee4036" fill-rule="evenodd" data-name="Path 19"/><path d="M76.188 60.574c-.102 0-.204-.153-.204-.408v-.152l4.688-29.403c.102-.407.204-.611.357-.611h2.752c.152 0 .203.153.203.408v.153l-4.688 29.402c-.102.407-.203.611-.356.611h-2.752Z" fill="#ee4036" fill-rule="evenodd" data-name="Path 20"/><path d="M88.418 57.16c-.204 0-.306-.051-.408-.153-.102-.102-.102-.306-.102-.611V34.229c0-.305.05-.56.102-.611.102-.102.204-.153.408-.153h2.904c.204 0 .306.051.408.153.102.102.102.306.102.611v8.765c0 .102 0 .204.05.255.052.102.103.102.154.102h5.962c.05 0 .1-.051.152-.102.05-.102.102-.153.102-.255v-8.765c0-.305.05-.509.153-.611.102-.102.204-.153.408-.153h2.955c.153 0 .306.051.357.153.102.102.102.306.102.611v22.167c0 .305-.051.56-.102.611a.463.463 0 0 1-.357.153h-2.955c-.102 0-.204 0-.255-.051l-.204-.204a1.278 1.278 0 0 1-.102-.509v-10.09c0-.255-.051-.356-.203-.356h-6.013c-.153 0-.204.101-.204.356v10.09c0 .305-.051.509-.153.611-.102.102-.204.153-.408.153h-2.853Z" fill="#ee4036" fill-rule="evenodd" data-name="Path 21"/><path d="M109.616 57.16c-.153 0-.306-.051-.357-.153-.102-.102-.153-.306-.153-.611V36.522c0-.254-.051-.407-.204-.407h-3.77c-.051 0-.102-.051-.153-.153-.051-.102-.051-.255-.051-.459v-1.325c0-.305.05-.509.102-.56.102-.102.203-.153.407-.153h11.262c.153 0 .305.051.356.153.102.102.102.306.102.56v1.325c0 .255-.051.459-.102.51-.051.051-.203.102-.407.102h-3.414c-.153 0-.204.153-.204.407v19.874c0 .305-.051.56-.153.662-.102.102-.204.153-.408.153h-2.853v-.051Z" fill="#ee4036" fill-rule="evenodd" data-name="Path 22"/><path d="M120.062 57.16c-.306 0-.46-.255-.46-.815v-.102l.918-21.912c0-.611.204-.917.51-.917h3.159c.204 0 .357.051.51.153.153.102.255.306.306.611l3.363 15.593c0 .051.05.102.05.102h.103c.05 0 .05-.051.05-.102l3.364-15.491c.102-.509.357-.815.764-.815h3.21c.306 0 .459.357.459.917l.917 21.912v.102c0 .509-.153.815-.51.815h-2.19c-.306 0-.51-.306-.51-.866l-.611-17.02c0-.051 0-.102-.051-.102s-.051 0-.102.051l-3.618 17.122c-.102.509-.357.815-.663.815h-1.274c-.305 0-.56-.255-.662-.815l-3.516-17.02c0-.051-.051-.102-.102-.051v.102l-.662 16.867c0 .611-.153.866-.46.866h-2.292Z" fill="#ee4036" fill-rule="evenodd" data-name="Path 23"/><path d="M142.074 57.16c-.153 0-.306-.051-.356-.153-.102-.102-.102-.306-.102-.611V34.229c0-.305.051-.56.102-.611a.46.46 0 0 1 .356-.153h2.956c.153 0 .305.051.356.153.102.102.102.306.102.611v19.976c0 .254.102.356.255.356h5.198c.153 0 .305.051.356.102.102.102.102.255.102.51v1.325c0 .254-.05.458-.102.56-.1.102-.203.102-.356.102h-8.867Z" fill="#ee4036" fill-rule="evenodd" data-name="Path 24"/><path d="M155.985 54.765c-.203 0-.356-.051-.458-.204-.102-.153-.204-.306-.204-.509v-1.121c0-.051 0-.153.051-.204 0-.051.051-.102.051-.153.051-.051.051-.102.051-.153 0-.051.051-.102.102-.153.051-.051.102-.102.102-.153 0-.051.051-.051.102-.153l.153-.152c.05 0 .101-.051.152-.153.102-.051.153-.102.153-.153l4.484-4.586c.102-.102.153-.204.153-.306 0-.102-.05-.204-.203-.306l-4.434-4.433c-.05-.051-.102-.102-.255-.204-.1-.102-.203-.153-.203-.204l-.153-.153c-.102-.101-.153-.152-.153-.203 0-.051-.05-.102-.102-.204-.05-.102-.05-.153-.102-.255V39.274c0-.204.051-.357.204-.509a.646.646 0 0 1 .46-.204c.151 0 .304.051.508.204l5.81 5.656.611.611c.102.102.203.255.305.459.102.204.153.459.153.662V47.223c0 .051-.05.153-.05.204-.052.102-.052.153-.052.204 0 .051-.05.102-.102.204a.65.65 0 0 1-.1.153s-.052.102-.154.204l-.153.152-.204.204c-.102.102-.204.153-.204.204l-5.758 5.758c-.255.204-.408.255-.56.255Z" fill="#ee4036" fill-rule="evenodd" data-name="Path 25"/></g></svg>